<svg width="19" height="17" viewBox="0 0 19 17" fill="none" xmlns="http://www.w3.org/2000/svg">
<path d="M0.556686 14.623H3.33988V16.2929C3.33988 16.6004 3.58911 16.8496 3.89652 16.8496H18.4434C18.7508 16.8496 19 16.6004 19 16.2929V1.82031C19 1.5129 18.7508 1.26367 18.4434 1.26367H15.6602V0.70703C15.6602 0.399617 15.4109 0.150391 15.1035 0.150391C14.7961 0.150391 14.5469 0.399617 14.5469 0.70703V1.26367H11.7266V0.70703C11.7266 0.399617 11.4774 0.150391 11.1699 0.150391C10.8625 0.150391 10.6133 0.399617 10.6133 0.70703V1.26367H7.83011V0.70703C7.83011 0.399617 7.58088 0.150391 7.27347 0.150391C6.96606 0.150391 6.71683 0.399617 6.71683 0.70703V1.26367H3.89652C3.58911 1.26367 3.33988 1.5129 3.33988 1.82031V5.16015C3.33988 9.26258 1.6349 12.4186 0.200325 13.6388C0.020271 13.7888 -0.0464886 14.0355 0.0332593 14.2559C0.113081 14.4763 0.322304 14.623 0.556686 14.623ZM17.8867 15.7363H4.45316V14.623H15.1035C15.2337 14.623 15.3598 14.5774 15.4599 14.494C16.129 13.9366 17.1655 12.6097 17.8867 10.9102V15.7363ZM4.45316 2.37695H6.71683V2.93359C6.71683 3.241 6.96606 3.49023 7.27347 3.49023C7.58088 3.49023 7.83011 3.241 7.83011 2.93359V2.37695H10.6133V2.93359C10.6133 3.241 10.8625 3.49023 11.1699 3.49023C11.4774 3.49023 11.7266 3.241 11.7266 2.93359V2.37695H14.5469V2.93359C14.5469 3.241 14.7961 3.49023 15.1035 3.49023C15.4109 3.49023 15.6602 3.241 15.6602 2.93359V2.37695H17.8867V4.60351H4.45316V2.37695ZM4.44363 5.71642H17.8769C17.7514 9.24755 16.3962 12.0259 14.8853 13.5097H1.82282C3.53478 11.3284 4.35178 8.48818 4.44363 5.71642Z" fill="white"/>
</svg>
