<svg width="18" height="17" viewBox="0 0 18 17" fill="none" xmlns="http://www.w3.org/2000/svg">
<path d="M16.6034 11.8056C15.4229 11.8056 14.2895 11.6167 13.2317 11.2672C12.9012 11.1633 12.5329 11.2389 12.2684 11.4939L10.1906 13.5717C7.51785 12.2117 5.32674 10.03 3.96674 7.34778L6.04452 5.26056C6.30896 5.015 6.38452 4.64667 6.28063 4.31611C5.93118 3.25833 5.7423 2.125 5.7423 0.944444C5.7423 0.425 5.3173 0 4.79785 0H1.4923C0.972852 0 0.547852 0.425 0.547852 0.944444C0.547852 9.81278 7.73507 17 16.6034 17C17.1229 17 17.5479 16.575 17.5479 16.0556V12.75C17.5479 12.2306 17.1229 11.8056 16.6034 11.8056ZM15.659 8.5H17.5479C17.5479 3.80611 13.7417 0 9.04785 0V1.88889C12.7029 1.88889 15.659 4.845 15.659 8.5ZM11.8812 8.5H13.7701C13.7701 5.89333 11.6545 3.77778 9.04785 3.77778V5.66667C10.6156 5.66667 11.8812 6.93222 11.8812 8.5Z" fill="#A82633"/>
</svg>
