<svg width="20" height="21" viewBox="0 0 20 21" fill="none" xmlns="http://www.w3.org/2000/svg">
<path d="M14.2939 13.2075H13.3905L13.0703 12.8834C14.191 11.5146 14.8656 9.73756 14.8656 7.80446C14.8656 3.494 11.538 0 7.43282 0C3.32762 0 0 3.494 0 7.80446C0 12.1149 3.32762 15.6089 7.43282 15.6089C9.27387 15.6089 10.9663 14.9005 12.2699 13.7238L12.5786 14.06V15.0086L18.2962 21L20 19.211L14.2939 13.2075ZM7.43282 13.2075C4.58548 13.2075 2.28702 10.7942 2.28702 7.80446C2.28702 4.81475 4.58548 2.40137 7.43282 2.40137C10.2802 2.40137 12.5786 4.81475 12.5786 7.80446C12.5786 10.7942 10.2802 13.2075 7.43282 13.2075Z" fill="#F6F8F9"/>
</svg>
